<svg width="116" height="116" viewBox="0 0 116 116" fill="none" xmlns="http://www.w3.org/2000/svg">
  <g filter="url(#filter0_d)">
    <path
      d="M89 4H19C10.7157 4 4 10.7157 4 19V89C4 97.2843 10.7157 104 19 104H89C97.2843 104 104 97.2843 104 89V19C104 10.7157 97.2843 4 89 4Z"
      fill="#20374C" />
    <path fill-rule="evenodd" clip-rule="evenodd"
      d="M54.2899 26.668C38.3006 26.668 25.3335 39.6333 25.3335 55.628C25.3335 68.4227 33.6304 79.276 45.1379 83.1053C46.5868 83.372 47.1148 82.4778 47.1148 81.7098C47.1148 81.0218 47.0899 79.2013 47.0757 76.7853C39.0206 78.5347 37.3211 72.9027 37.3211 72.9027C36.0037 69.5569 34.1051 68.6662 34.1051 68.6662C31.4757 66.8707 34.3042 66.9062 34.3042 66.9062C37.2108 67.1107 38.7397 69.8911 38.7397 69.8911C41.3228 74.316 45.5184 73.0378 47.1682 72.2964C47.4313 70.4262 48.1797 69.1498 49.0064 68.4262C42.5762 67.6956 35.8153 65.2102 35.8153 54.1134C35.8153 50.9525 36.9442 48.3658 38.7966 46.3427C38.498 45.6102 37.5042 42.6645 39.0811 38.6787C39.0811 38.6787 41.5113 37.9 47.0437 41.6476C49.353 41.004 51.8313 40.684 54.2935 40.6716C56.7539 40.684 59.2304 41.004 61.5433 41.6476C67.0722 37.9 69.4988 38.6787 69.4988 38.6787C71.0793 42.6645 70.0855 45.6102 69.7886 46.3427C71.6446 48.3658 72.7646 50.9525 72.7646 54.1134C72.7646 65.2387 65.9931 67.6867 59.5433 68.4031C60.5815 69.2974 61.5077 71.0644 61.5077 73.7649C61.5077 77.6369 61.4722 80.7605 61.4722 81.7098C61.4722 82.4849 61.9948 83.3862 63.4633 83.1036C74.962 79.2653 83.2517 68.4191 83.2517 55.628C83.2517 39.6333 70.2846 26.668 54.2899 26.668Z"
      fill="white" />
  </g>
  <defs>
    <filter id="filter0_d" x="0" y="0" width="116" height="116" filterUnits="userSpaceOnUse"
      color-interpolation-filters="sRGB">
      <feFlood flood-opacity="0" result="BackgroundImageFix" />
      <feColorMatrix in="SourceAlpha" type="matrix" values="0 0 0 0 0 0 0 0 0 0 0 0 0 0 0 0 0 0 127 0" />
      <feOffset dx="4" dy="4" />
      <feGaussianBlur stdDeviation="4" />
      <feColorMatrix type="matrix" values="0 0 0 0 0 0 0 0 0 0 0 0 0 0 0 0 0 0 0.25 0" />
      <feBlend mode="normal" in2="BackgroundImageFix" result="effect1_dropShadow" />
      <feBlend mode="normal" in="SourceGraphic" in2="effect1_dropShadow" result="shape" />
    </filter>
  </defs>
</svg>